<?xml version="1.0" standalone="no"?>
<!DOCTYPE svg PUBLIC "-//W3C//DTD SVG 20010904//EN"
 "http://www.w3.org/TR/2001/REC-SVG-20010904/DTD/svg10.dtd">
<svg version="1.0" xmlns="http://www.w3.org/2000/svg"
 width="700.000000pt" height="700.000000pt" viewBox="0 0 700.000000 700.000000"
 preserveAspectRatio="xMidYMid meet">
<metadata>
Created by potrace 1.11, written by Peter Selinger 2001-2013
</metadata>
<g transform="translate(0.000000,700.000000) scale(0.100000,-0.100000)"
fill="#000000" stroke="none">
<path d="M3299 6626 c-2 -2 -47 -7 -99 -11 -52 -4 -97 -8 -100 -10 -3 -2 -29
-6 -59 -10 -30 -4 -63 -9 -75 -11 -12 -3 -30 -7 -41 -8 -59 -10 -133 -26 -185
-41 -8 -2 -40 -11 -70 -19 -341 -92 -695 -269 -965 -485 -104 -83 -121 -98
-223 -200 -306 -309 -517 -703 -577 -1081 -3 -19 -8 -46 -10 -60 -13 -65 -18
-165 -19 -390 l-2 -245 -69 -6 c-164 -16 -224 -31 -360 -93 -223 -103 -388
-301 -434 -521 -6 -30 -10 -221 -10 -480 0 -350 3 -444 15 -504 56 -267 291
-491 599 -570 228 -58 407 -41 538 51 27 20 29 20 42 2 8 -11 28 -45 45 -77
75 -140 293 -474 374 -571 73 -88 119 -124 221 -174 113 -56 177 -108 235
-190 82 -117 297 -253 555 -351 33 -13 69 -27 80 -31 126 -50 386 -105 600
-125 63 -6 302 -7 335 -1 14 2 48 8 75 12 28 4 52 8 55 9 3 0 23 4 45 9 79 15
365 99 617 182 243 80 263 89 355 151 54 36 143 87 198 115 140 69 183 105
270 218 28 36 55 70 60 76 6 7 25 31 44 54 30 37 90 103 201 221 113 120 187
224 241 335 27 56 49 107 49 113 0 15 4 14 58 -13 198 -99 549 -42 786 128
149 107 244 243 286 413 20 76 21 104 17 544 -3 459 -3 465 -27 529 -60 166
-159 290 -313 390 -38 25 -71 45 -75 46 -4 0 -32 12 -63 27 -91 41 -219 72
-321 76 -35 1 -65 5 -68 7 -2 3 -5 109 -6 237 0 128 -4 264 -8 302 -67 660
-445 1223 -1091 1624 -130 81 -494 246 -585 266 -8 2 -72 19 -141 38 -70 20
-142 38 -160 41 -19 3 -56 10 -84 15 -27 6 -66 12 -85 15 -80 11 -127 17 -160
22 -42 6 -506 15 -511 10z m341 -370 c69 -3 159 -10 200 -16 41 -6 86 -13 100
-15 14 -2 68 -13 120 -25 355 -80 661 -224 954 -450 23 -18 155 -137 176 -159
201 -212 334 -430 419 -686 36 -108 57 -195 47 -195 -2 0 -32 45 -67 100 -245
386 -462 582 -768 696 -97 36 -249 97 -286 114 -41 19 -192 88 -240 109 -27
13 -59 27 -70 32 -11 5 -47 17 -80 28 -169 53 -255 60 -690 56 -209 -1 -398
-6 -420 -9 -159 -28 -289 -76 -390 -146 -40 -27 -121 -70 -195 -103 -19 -9
-84 -30 -144 -47 -118 -34 -168 -56 -267 -115 -63 -39 -159 -104 -169 -115 -3
-3 -39 -32 -80 -65 -41 -32 -145 -129 -230 -215 -198 -200 -193 -197 -170
-123 27 84 73 193 116 270 52 94 58 106 67 117 4 6 30 42 58 80 254 354 649
629 1104 770 134 42 140 43 175 50 14 2 45 9 70 15 62 14 96 20 160 27 30 3
64 8 75 10 11 3 76 7 145 10 69 4 127 8 128 9 2 2 9 2 15 0 7 -2 68 -6 137 -9z"/>
</g>
</svg>
